<?xml version="1.0" standalone="no"?>
<!DOCTYPE svg PUBLIC "-//W3C//DTD SVG 20010904//EN"
 "http://www.w3.org/TR/2001/REC-SVG-20010904/DTD/svg10.dtd">
<svg version="1.0" xmlns="http://www.w3.org/2000/svg"
 width="342.000000pt" height="342.000000pt" viewBox="0 0 342.000000 342.000000"
 preserveAspectRatio="xMidYMid meet">
<metadata>
Created by potrace 1.14, written by Peter Selinger 2001-2017
</metadata>
<g transform="translate(0.000000,342.000000) scale(0.100000,-0.100000)"
fill="#000000" stroke="none">
<path d="M315 3406 c-155 -49 -270 -170 -304 -317 -14 -60 -15 -2666 -1 -2740
28 -150 149 -282 299 -326 48 -14 203 -15 1395 -15 1017 0 1352 3 1386 12 156
42 278 167 312 323 8 38 11 415 11 1382 -1 1316 -1 1331 -21 1394 -46 143
-157 248 -300 286 -49 13 -232 15 -1397 14 -1052 0 -1349 -3 -1380 -13z m1291
-890 l1 -703 -704 -1 -703 0 0 607 c0 408 4 619 11 646 13 49 89 126 139 142
24 7 230 11 645 12 l611 1 0 -704z m1456 690 c56 -20 95 -56 124 -114 l27 -53
-1 -282 c0 -155 -1 -287 -1 -294 -1 -17 -1401 -17 -1402 0 -1 16 -1 740 0 750
1 4 274 7 609 7 474 -1 615 -4 644 -14z m147 -964 c4 -8 6 -1026 2 -1064 -1
-4 -316 -7 -701 -7 -530 0 -700 3 -701 12 0 7 -1 251 -2 542 l-2 530 699 -2
c454 -1 701 -5 705 -11z m-1628 -631 l25 -1 0 -700 c0 -482 -3 -700 -11 -701
-5 0 -283 0 -618 0 -662 1 -644 -1 -705 59 -71 69 -67 29 -70 719 l-3 622 58
3 c45 2 1211 1 1324 -1z m1628 -649 c11 -19 4 -555 -8 -600 -14 -49 -75 -116
-126 -138 -28 -11 -145 -14 -646 -14 -336 0 -614 2 -617 5 -3 3 -6 175 -6 382
l-1 378 699 -2 c454 -1 701 -5 705 -11z"/>
</g>
</svg>
